<svg t="1659418001769" class="icon" viewBox="0 0 1024 1024" version="1.1" xmlns="http://www.w3.org/2000/svg" p-id="1558" width="14" height="14">
<path d="M929.28 102.528H1024V1024H0V102.528h94.72l4.864-0.128h113.728V0H312.96v102.4h398.208V0h99.584v102.4h113.728c1.664 0 3.2 0 4.864 0.128zM924.416 307.2V204.8H99.584v102.4h824.832zM192 512v128h128V512H192z m256 0v128h128V512H448z m256 0v128h128V512h-128z m-512 192v128h128v-128H192z m256 0v128h128v-128H448z m256 0v128h128v-128h-128z" fill="#666666" p-id="1559"></path></svg>