<?xml version="1.0" standalone="no"?><!DOCTYPE svg PUBLIC "-//W3C//DTD SVG 1.1//EN" "http://www.w3.org/Graphics/SVG/1.1/DTD/svg11.dtd"><svg t="1660786930879" class="icon" viewBox="0 0 1025 1024" version="1.1" xmlns="http://www.w3.org/2000/svg" p-id="6210" xmlns:xlink="http://www.w3.org/1999/xlink" width="200.1953125" height="200"><defs><style type="text/css">@font-face { font-family: feedback-iconfont; src: url("//at.alicdn.com/t/font_1031158_u69w8yhxdu.woff2?t=1630033759944") format("woff2"), url("//at.alicdn.com/t/font_1031158_u69w8yhxdu.woff?t=1630033759944") format("woff"), url("//at.alicdn.com/t/font_1031158_u69w8yhxdu.ttf?t=1630033759944") format("truetype"); }
</style></defs><path d="M513.947 774.129c-26.791 0-48.509-21.725-48.509-48.508 0-26.797 21.718-48.509 48.509-48.509 26.769 0 48.507 21.712 48.507 48.509C562.454 752.404 540.716 774.129 513.947 774.129M550.204 587.016c0 18.635-16.27 33.741-36.366 33.741-20.105 0-36.381-15.107-36.381-33.741l-12.018-299.899c0-24.848 21.717-44.994 48.508-44.994 26.77 0 48.508 20.145 48.508 44.994L550.204 587.016zM513.947 60.128c-247.426 0-448.004 200.58-448.004 448 0 247.421 200.578 448 448.004 448 247.431 0 447.996-200.58 447.996-448S761.378 60.128 513.947 60.128z" fill="#f64c30" p-id="6211"></path></svg>